<?xml version="1.0" encoding="UTF-8"?>
<!DOCTYPE svg PUBLIC "-//W3C//DTD SVG 1.1//EN" "http://www.w3.org/Graphics/SVG/1.1/DTD/svg11.dtd">
<svg xmlns="http://www.w3.org/2000/svg" version="1.1" width="1000px" height="1000px" style="shape-rendering:geometricPrecision; text-rendering:geometricPrecision; image-rendering:optimizeQuality; fill-rule:evenodd; clip-rule:evenodd" xmlns:xlink="http://www.w3.org/1999/xlink">
<g><path style="opacity:0.778" fill="#f9f9fb" d="M 467.5,-0.5 C 488.167,-0.5 508.833,-0.5 529.5,-0.5C 677.499,11.908 798.333,75.2414 892,189.5C 982.029,308.288 1015.03,441.621 991,589.5C 964.664,722.374 897.164,828.54 788.5,908C 711.037,962.212 625.037,992.712 530.5,999.5C 509.5,999.5 488.5,999.5 467.5,999.5C 309.534,986.182 183.7,916.182 90,789.5C 38.5952,715.797 8.42856,634.13 -0.5,544.5C -0.5,514.5 -0.5,484.5 -0.5,454.5C 16.8358,301.161 87.5025,179.328 211.5,89C 288.556,35.813 373.89,5.97962 467.5,-0.5 Z"/></g>
<g><path style="opacity:1" fill="#8f82bc" d="M 470.5,2.5 C 624.64,-2.76015 755.14,49.5732 862,159.5C 967.415,276.77 1010.41,414.103 991,571.5C 964.933,726.103 885.766,844.603 753.5,927C 630.968,997.04 501.301,1014.37 364.5,979C 217.597,934.424 111.097,842.924 45,704.5C -2.01559,595.941 -11.0156,484.275 18,369.5C 60.3651,225.149 148.532,118.982 282.5,51C 342.166,22.7069 404.833,6.54025 470.5,2.5 Z"/></g>
<g><path style="opacity:1" fill="#fefffe" d="M 545.5,25.5 C 547.167,25.5 548.833,25.5 550.5,25.5C 550.22,28.3882 551.553,29.8882 554.5,30C 565.222,31.6027 575.889,33.4361 586.5,35.5C 588.578,33.0136 591.245,32.0136 594.5,32.5C 593.885,37.5258 593.051,42.5258 592,47.5C 590.644,48.3802 589.144,48.7135 587.5,48.5C 587.194,38.9261 582.361,35.2594 573,37.5C 570.448,51.8052 568.448,66.1385 567,80.5C 569.022,81.7865 571.189,82.7865 573.5,83.5C 574.386,84.325 574.719,85.325 574.5,86.5C 565.198,84.9497 555.865,83.6163 546.5,82.5C 546.5,81.5 546.5,80.5 546.5,79.5C 550.03,80.0111 553.196,79.3444 556,77.5C 558.452,63.285 560.952,49.1183 563.5,35C 555.771,31.6714 549.438,33.3381 544.5,40C 542.741,40.7975 541.074,40.6309 539.5,39.5C 541.515,34.8075 543.515,30.1408 545.5,25.5 Z"/></g>
<g><path style="opacity:1" fill="#fefffe" d="M 413.5,32.5 C 415.124,32.3601 416.29,33.0267 417,34.5C 417.828,38.466 418.328,42.466 418.5,46.5C 417.448,46.6495 416.448,46.4828 415.5,46C 413.899,42.9331 411.732,40.4331 409,38.5C 402.468,39.8729 395.968,41.3729 389.5,43C 389.167,43.3333 388.833,43.6667 388.5,44C 390.149,50.0762 391.482,56.2428 392.5,62.5C 398.567,61.4834 404.567,60.15 410.5,58.5C 411.318,55.8929 411.818,53.2263 412,50.5C 413.011,49.6634 414.178,49.33 415.5,49.5C 416.5,56.8333 417.5,64.1667 418.5,71.5C 415.566,70.7106 413.732,68.7106 413,65.5C 412.196,64.1955 411.029,63.5288 409.5,63.5C 404.055,64.4549 398.721,65.7883 393.5,67.5C 394.935,73.8374 396.435,80.1707 398,86.5C 405.893,86.1895 413.727,84.6895 421.5,82C 424.032,78.5786 425.699,74.7453 426.5,70.5C 427.689,69.5713 429.022,69.238 430.5,69.5C 430.5,74.8333 430.5,80.1667 430.5,85.5C 414.133,88.6752 397.799,92.0085 381.5,95.5C 381.5,94.1667 381.5,92.8333 381.5,91.5C 384.573,91.5472 386.906,90.3806 388.5,88C 385.461,73.8022 382.294,59.6356 379,45.5C 376.595,45.036 374.095,44.8693 371.5,45C 370.663,43.9887 370.33,42.8221 370.5,41.5C 385.136,39.3739 399.469,36.3739 413.5,32.5 Z"/></g>
<g><path style="opacity:1" fill="#fefffe" d="M 708.5,78.5 C 710.199,78.3398 711.866,78.5065 713.5,79C 718.668,82.4185 724.002,85.5852 729.5,88.5C 730.386,89.325 730.719,90.325 730.5,91.5C 727.404,91.0653 724.404,90.5653 721.5,90C 718.417,95.5015 715.084,100.835 711.5,106C 718.582,110.625 725.749,115.125 733,119.5C 736.167,113.833 739.333,108.167 742.5,102.5C 741.653,101.155 740.487,100.155 739,99.5C 738.517,98.552 738.351,97.552 738.5,96.5C 740.989,96.2978 743.323,96.7978 745.5,98C 750.377,100.932 755.043,104.099 759.5,107.5C 756.812,108.797 754.312,108.464 752,106.5C 744.918,118.999 737.585,131.332 730,143.5C 729.333,144.5 729.333,145.5 730,146.5C 732.158,147.826 733.992,149.493 735.5,151.5C 733.926,152.631 732.259,152.798 730.5,152C 724.294,148.403 718.294,144.569 712.5,140.5C 713.333,140.167 714.167,139.833 715,139.5C 716.841,140.125 718.674,140.292 720.5,140C 723.583,134.498 726.916,129.165 730.5,124C 723.418,119.375 716.251,114.875 709,110.5C 705.699,116.269 702.532,122.103 699.5,128C 701.894,129.551 703.227,131.718 703.5,134.5C 702.127,134.657 700.793,134.49 699.5,134C 693.167,130.167 686.833,126.333 680.5,122.5C 683.32,121.306 686.153,121.306 689,122.5C 690.767,121.66 692.101,120.327 693,118.5C 699.301,107.37 705.801,96.3697 712.5,85.5C 710.266,83.6187 708.933,81.2853 708.5,78.5 Z"/></g>
<g><path style="opacity:1" fill="#f2f0f7" d="M 470.5,89.5 C 619.295,85.8236 738.462,142.824 828,260.5C 902.073,368.259 922.406,485.592 889,612.5C 848.086,742.748 764.252,833.248 637.5,884C 514.895,926.756 397.228,916.089 284.5,852C 163.282,775.482 96.7823,665.315 85,521.5C 80.6576,392.065 125.491,283.232 219.5,195C 291.188,131.836 374.855,96.6695 470.5,89.5 Z"/></g>
<g><path style="opacity:1" fill="#fefffe" d="M 253.5,90.5 C 255.635,90.147 256.968,90.9803 257.5,93C 254.969,95.8894 252.802,99.056 251,102.5C 248.161,111.017 245.328,119.517 242.5,128C 254.472,129.697 266.472,131.197 278.5,132.5C 281.705,131.233 285.038,130.566 288.5,130.5C 288.67,131.822 288.337,132.989 287.5,134C 281.156,137.504 275.156,141.504 269.5,146C 268.552,146.483 267.552,146.649 266.5,146.5C 266.081,143.675 267.081,141.509 269.5,140C 258.964,137.813 248.297,136.813 237.5,137C 241.414,142.159 245.08,147.493 248.5,153C 251.174,152.847 253.84,152.347 256.5,151.5C 256.714,153.144 256.38,154.644 255.5,156C 250.228,158.941 245.228,162.274 240.5,166C 239.207,166.49 237.873,166.657 236.5,166.5C 236.933,163.715 238.266,161.381 240.5,159.5C 232.505,146.697 224.005,134.364 215,122.5C 213.333,123.167 211.667,123.833 210,124.5C 208.5,124.333 207.667,123.5 207.5,122C 214.142,116.841 221.142,112.341 228.5,108.5C 229.178,112.273 227.844,115.106 224.5,117C 227.811,122.468 231.477,127.635 235.5,132.5C 239.985,122.881 243.151,112.881 245,102.5C 242.772,104.113 240.272,104.78 237.5,104.5C 237.297,102.61 237.963,101.11 239.5,100C 244.406,97.0578 249.072,93.8911 253.5,90.5 Z"/></g>
<g><path style="opacity:1" fill="#8f82bc" d="M 470.5,92.5 C 608.432,88.2392 721.932,138.239 811,242.5C 887.659,340.131 915.659,450.464 895,573.5C 869.227,698.988 801.06,793.488 690.5,857C 591.664,908.937 488.331,920.271 380.5,891C 259.206,853.035 172.372,776.202 120,660.5C 83.2615,570.755 77.5948,479.088 103,385.5C 147.073,248.427 237.24,156.593 373.5,110C 405.328,100.598 437.662,94.765 470.5,92.5 Z"/></g>
<g><path style="opacity:1" fill="#fefffe" d="M 850.5,189.5 C 852.722,189.178 854.556,189.845 856,191.5C 861.333,198.167 866.667,204.833 872,211.5C 875.741,225.092 870.574,231.592 856.5,231C 855.234,230.691 854.067,230.191 853,229.5C 848.539,237.255 845.039,245.422 842.5,254C 843.27,256.567 844.27,259.067 845.5,261.5C 844.833,261.833 844.167,262.167 843.5,262.5C 839.711,258.949 836.378,254.949 833.5,250.5C 836.903,242.459 840.403,234.459 844,226.5C 844.987,222.494 843.487,220.661 839.5,221C 834.563,224.951 829.897,229.118 825.5,233.5C 826.946,235.618 827.613,237.951 827.5,240.5C 826.178,240.67 825.011,240.337 824,239.5C 819.743,233.321 815.243,227.321 810.5,221.5C 813.538,220.017 815.872,220.85 817.5,224C 818.5,224.667 819.5,224.667 820.5,224C 831.781,215.213 842.781,206.213 853.5,197C 852.349,194.535 851.349,192.035 850.5,189.5 Z"/></g>
<g><path style="opacity:1" fill="#8e82bc" d="M 860.5,204.5 C 865.189,207.988 866.689,212.655 865,218.5C 858.406,226.598 852.239,226.098 846.5,217C 850.703,212.296 855.369,208.13 860.5,204.5 Z"/></g>
<g><path style="opacity:1" fill="#fefffe" d="M 102.5,227.5 C 120.399,231.854 138.233,236.521 156,241.5C 158.234,240.299 160.401,238.965 162.5,237.5C 163.724,239.898 163.558,242.231 162,244.5C 158.753,248.659 155.753,252.992 153,257.5C 151.989,258.337 150.822,258.67 149.5,258.5C 149.503,255.325 150.503,252.492 152.5,250C 145.978,248.244 139.478,246.411 133,244.5C 129.88,247.372 127.213,250.705 125,254.5C 124.685,255.908 125.018,257.241 126,258.5C 129.667,263.167 133.333,267.833 137,272.5C 139.018,270.65 140.851,268.65 142.5,266.5C 142.833,267.333 143.167,268.167 143.5,269C 140.501,275.503 136.501,281.336 131.5,286.5C 130.058,283.213 130.725,280.38 133.5,278C 122.877,263.254 112.377,248.421 102,233.5C 101.322,231.402 101.489,229.402 102.5,227.5 Z"/></g>
<g><path style="opacity:1" fill="#8e82bc" d="M 112.5,240.5 C 112.735,239.903 113.235,239.57 114,239.5C 118.874,240.509 123.374,242.176 127.5,244.5C 125.862,247.304 124.029,249.971 122,252.5C 119.055,248.249 115.888,244.249 112.5,240.5 Z"/></g>
<g><path style="opacity:1" fill="#fefffe" d="M 937.5,336.5 C 939.124,336.36 940.29,337.027 941,338.5C 944.762,352.453 948.929,366.286 953.5,380C 953.355,380.772 953.022,381.439 952.5,382C 948.177,383.276 943.844,384.442 939.5,385.5C 940.564,381.901 942.731,378.901 946,376.5C 946.167,375.667 946.333,374.833 946.5,374C 944.596,367.882 942.929,361.716 941.5,355.5C 936.399,356.143 931.399,357.309 926.5,359C 924.714,359.196 923.381,360.029 922.5,361.5C 924.167,366.833 925.833,372.167 927.5,377.5C 930.473,378.509 933.473,378.509 936.5,377.5C 936.773,379.451 936.107,380.951 934.5,382C 928.178,383.942 921.844,385.775 915.5,387.5C 915.513,384.137 917.179,381.97 920.5,381C 921.804,380.196 922.471,379.029 922.5,377.5C 921.006,372.524 919.673,367.524 918.5,362.5C 913.399,363.143 908.399,364.309 903.5,366C 901.349,366.265 899.682,367.265 898.5,369C 900.589,375.857 902.756,382.69 905,389.5C 908.883,392.765 913.383,394.432 918.5,394.5C 918.5,395.833 918.5,397.167 918.5,398.5C 913.077,398.518 907.744,399.185 902.5,400.5C 899.052,385.985 894.885,371.652 890,357.5C 889.505,355.527 889.338,353.527 889.5,351.5C 890.675,351.281 891.675,351.614 892.5,352.5C 893.414,354.664 894.581,356.664 896,358.5C 909.501,354.248 923.001,349.915 936.5,345.5C 937.484,342.572 937.817,339.572 937.5,336.5 Z"/></g>
<g><path style="opacity:1" fill="#fefffe" d="M 36.5,363.5 C 41.522,364.505 46.522,365.672 51.5,367C 52.3802,368.356 52.7135,369.856 52.5,371.5C 42.7614,370.919 38.428,375.586 39.5,385.5C 53.4448,388.445 67.2781,391.778 81,395.5C 83.4062,393.017 85.5729,390.35 87.5,387.5C 87.8333,388.333 88.1667,389.167 88.5,390C 86.697,398.719 84.3636,407.219 81.5,415.5C 80.6786,412.553 80.1786,409.553 80,406.5C 65.785,401.821 51.285,398.154 36.5,395.5C 35.9164,398.67 35.2497,401.837 34.5,405C 35.8807,408.063 37.7141,410.896 40,413.5C 40.4935,415.134 40.6602,416.801 40.5,418.5C 34.2904,417.24 29.2904,414.24 25.5,409.5C 27.432,407.611 29.2653,405.611 31,403.5C 33.1758,393.797 35.5092,384.13 38,374.5C 37.8519,370.821 37.3519,367.155 36.5,363.5 Z"/></g>
<g><path style="opacity:1" fill="#fefffe" d="M 187.5,457.5 C 194.61,456.78 198.61,459.946 199.5,467C 197.924,474.103 193.59,476.436 186.5,474C 181.077,468.072 181.41,462.572 187.5,457.5 Z"/></g>
<g><path style="opacity:1" fill="#fefffe" d="M 338.5,460.5 C 342.761,460.545 346.595,461.878 350,464.5C 348.231,476.046 347.065,487.712 346.5,499.5C 361.319,494.021 374.153,485.687 385,474.5C 388.7,476.884 391.2,480.218 392.5,484.5C 392.392,485.442 392.059,486.275 391.5,487C 382.833,492.333 374.167,497.667 365.5,503C 374.365,513.595 385.365,520.928 398.5,525C 399.935,527.267 399.602,529.267 397.5,531C 392.657,533.835 387.657,534.168 382.5,532C 377.882,529.05 373.548,525.716 369.5,522C 365.323,516.992 360.99,512.159 356.5,507.5C 353.5,508.833 350.5,510.167 347.5,511.5C 346.717,516.841 347.051,522.175 348.5,527.5C 347.962,533.863 344.628,536.029 338.5,534C 336.848,532.53 335.848,530.697 335.5,528.5C 336.816,508.009 336.816,487.509 335.5,467C 335.32,464.198 336.32,462.031 338.5,460.5 Z"/></g>
<g><path style="opacity:1" fill="#fefffe" d="M 538.5,460.5 C 543.503,460.085 547.67,461.752 551,465.5C 550.508,470.825 549.674,476.158 548.5,481.5C 548.833,482.5 549.167,483.5 549.5,484.5C 559.609,477.039 570.609,475.539 582.5,480C 588.317,483.151 591.817,487.984 593,494.5C 593.302,505.876 594.135,517.209 595.5,528.5C 593.433,535.281 589.266,536.948 583,533.5C 582.667,521.833 582.333,510.167 582,498.5C 579.995,491.898 575.495,488.231 568.5,487.5C 560.225,489.217 553.725,493.551 549,500.5C 548.505,509.9 549.005,519.234 550.5,528.5C 548.05,535.553 543.55,537.22 537,533.5C 537.81,511.864 537.643,490.197 536.5,468.5C 536.289,465.514 536.956,462.847 538.5,460.5 Z"/></g>
<g><path style="opacity:1" fill="#fefffe" d="M 222.5,462.5 C 227.55,462.274 231.383,464.274 234,468.5C 233.807,473.423 232.973,478.256 231.5,483C 240.442,483.987 249.275,483.487 258,481.5C 261.824,482.833 262.49,485.167 260,488.5C 258.127,490.709 255.96,492.542 253.5,494C 246.123,494.229 238.79,493.729 231.5,492.5C 231.353,502.2 231.853,511.866 233,521.5C 233.5,522 234,522.5 234.5,523C 238.711,524.534 243.044,524.867 247.5,524C 251.595,521.741 255.262,518.907 258.5,515.5C 260.497,515.986 261.831,517.153 262.5,519C 260.712,529.616 254.379,535.116 243.5,535.5C 238.779,534.92 234.113,534.087 229.5,533C 225.942,531.108 223.442,528.275 222,524.5C 221.267,514.14 221.433,503.806 222.5,493.5C 218.663,494.083 214.83,494.75 211,495.5C 208.78,495.455 207.28,494.455 206.5,492.5C 207.123,489.833 208.123,487.333 209.5,485C 213.7,483.633 218.033,483.133 222.5,483.5C 222.458,477.996 221.458,472.663 219.5,467.5C 220.092,465.577 221.092,463.911 222.5,462.5 Z"/></g>
<g><path style="opacity:1" fill="#fefffe" d="M 292.5,462.5 C 300.846,463.005 304.679,467.338 304,475.5C 295.833,487 287.667,498.5 279.5,510C 287.475,509.777 295.475,509.61 303.5,509.5C 303.453,499.807 303.286,490.141 303,480.5C 307.855,479.007 311.855,480.34 315,484.5C 313.982,492.42 313.482,500.42 313.5,508.5C 316.219,508.603 318.885,508.269 321.5,507.5C 323.739,507.574 324.739,508.741 324.5,511C 323.282,516.385 319.948,519.551 314.5,520.5C 313.863,524.571 313.029,528.571 312,532.5C 309.286,535.378 306.453,535.711 303.5,533.5C 302.297,528.849 302.297,524.182 303.5,519.5C 292.102,519.155 280.769,519.822 269.5,521.5C 264.849,520.807 263.349,518.141 265,513.5C 274.835,501.176 283.168,487.843 290,473.5C 290.838,469.792 291.671,466.125 292.5,462.5 Z"/></g>
<g><path style="opacity:1" fill="#fefffe" d="M 488.5,462.5 C 493.227,462.048 497.06,463.715 500,467.5C 500.049,472.867 499.549,478.2 498.5,483.5C 507.115,483.978 515.615,483.312 524,481.5C 526.981,482.443 527.981,484.443 527,487.5C 524.795,490.04 522.295,492.207 519.5,494C 512.452,494.273 505.452,493.773 498.5,492.5C 498.334,501.839 498.5,511.173 499,520.5C 499.374,521.416 499.874,522.25 500.5,523C 509.97,526.681 517.637,524.347 523.5,516C 525.107,516.019 526.774,516.185 528.5,516.5C 528.538,529.129 522.204,535.462 509.5,535.5C 503.45,535.332 497.783,533.832 492.5,531C 490.106,529.048 488.606,526.548 488,523.5C 487.37,513.484 487.537,503.484 488.5,493.5C 484.815,494.004 481.149,494.67 477.5,495.5C 474.5,495.833 473.167,494.5 473.5,491.5C 473.648,488.37 474.982,485.87 477.5,484C 481.152,483.501 484.818,483.335 488.5,483.5C 488.773,477.927 487.773,472.594 485.5,467.5C 486.26,465.64 487.26,463.973 488.5,462.5 Z"/></g>
<g><path style="opacity:1" fill="#fefffe" d="M 632.5,462.5 C 644.567,460.385 654.734,463.718 663,472.5C 668.158,482.749 667.158,492.415 660,501.5C 651.588,510.918 641.755,518.418 630.5,524C 642.955,525.383 655.122,524.216 667,520.5C 669.045,521.638 669.712,523.305 669,525.5C 667.558,529.275 665.058,532.108 661.5,534C 644.5,534.667 627.5,534.667 610.5,534C 608.106,529.123 609.106,524.79 613.5,521C 629.859,514.975 643.026,504.808 653,490.5C 655.442,482.215 652.608,476.381 644.5,473C 640.406,472.233 636.406,472.566 632.5,474C 626.601,477.231 621.268,481.231 616.5,486C 614.559,486.743 612.726,486.576 611,485.5C 610.274,480.761 610.607,476.095 612,471.5C 618.682,468.756 625.515,465.756 632.5,462.5 Z"/></g>
<g><path style="opacity:1" fill="#fefffe" d="M 187.5,475.5 C 191.449,476.225 194.949,477.891 198,480.5C 198.167,482.5 198.333,484.5 198.5,486.5C 197.52,501.166 197.354,515.833 198,530.5C 195.947,534.292 192.781,535.458 188.5,534C 187.333,533.5 186.5,532.667 186,531.5C 185.583,522.83 185.75,514.163 186.5,505.5C 186.443,497.211 185.443,489.044 183.5,481C 184.007,478.455 185.341,476.621 187.5,475.5 Z"/></g>
<g><path style="opacity:1" fill="#fefffe" d="M 431.5,475.5 C 442.11,474.52 451.776,477.02 460.5,483C 469.895,490.44 470.562,498.44 462.5,507C 446.844,506.589 431.178,506.589 415.5,507C 415.471,515.016 419.471,520.349 427.5,523C 441.983,526.095 453.316,521.428 461.5,509C 466.23,507.396 468.23,509.063 467.5,514C 467.34,521.997 463.674,527.663 456.5,531C 441.617,536.508 427.284,535.508 413.5,528C 402.103,515.641 400.603,502.141 409,487.5C 415.249,480.961 422.749,476.961 431.5,475.5 Z"/></g>
<g><path style="opacity:1" fill="#fefffe" d="M 706.5,475.5 C 717.11,474.52 726.776,477.02 735.5,483C 744.895,490.44 745.562,498.44 737.5,507C 721.844,506.589 706.178,506.589 690.5,507C 690.471,515.016 694.471,520.349 702.5,523C 716.983,526.095 728.316,521.428 736.5,509C 741.23,507.396 743.23,509.063 742.5,514C 742.34,521.997 738.674,527.663 731.5,531C 716.617,536.508 702.284,535.508 688.5,528C 677.212,515.623 675.712,502.123 684,487.5C 690.249,480.961 697.749,476.961 706.5,475.5 Z"/></g>
<g><path style="opacity:1" fill="#fefffe" d="M 776.5,475.5 C 792.519,473.263 804.686,478.93 813,492.5C 814.08,498.496 812.247,503.329 807.5,507C 792.179,506.569 776.845,506.569 761.5,507C 760.84,513.015 763.174,517.681 768.5,521C 784.607,527.299 797.607,523.299 807.5,509C 811.197,507.846 813.197,509.179 813.5,513C 813.056,522.444 808.389,528.777 799.5,532C 786.057,536.098 773.057,535.098 760.5,529C 750.784,520.66 747.284,510.16 750,497.5C 754.513,484.81 763.346,477.477 776.5,475.5 Z"/></g>
<g><path style="opacity:1" fill="#8e82bc" d="M 435.5,484.5 C 444.026,484.761 450.359,488.594 454.5,496C 454.167,496.333 453.833,496.667 453.5,497C 443.485,497.27 433.485,497.77 423.5,498.5C 420.943,498.558 418.61,497.891 416.5,496.5C 421.15,489.683 427.484,485.683 435.5,484.5 Z"/></g>
<g><path style="opacity:1" fill="#8e82bc" d="M 710.5,484.5 C 719.026,484.761 725.359,488.594 729.5,496C 729.167,496.333 728.833,496.667 728.5,497C 718.485,497.27 708.485,497.77 698.5,498.5C 695.943,498.558 693.61,497.891 691.5,496.5C 696.15,489.683 702.484,485.683 710.5,484.5 Z"/></g>
<g><path style="opacity:1" fill="#8e82bc" d="M 781.5,484.5 C 789.726,485.277 796.059,489.11 800.5,496C 800.167,496.333 799.833,496.667 799.5,497C 789.152,497.266 778.818,497.766 768.5,498.5C 766.077,498.406 763.744,497.906 761.5,497C 766.468,490.021 773.135,485.854 781.5,484.5 Z"/></g>
<g><path style="opacity:1" fill="#fefffe" d="M 915.5,504.5 C 917.369,506.635 918.036,509.302 917.5,512.5C 932.804,514.046 948.137,514.879 963.5,515C 964.423,512.959 964.756,510.792 964.5,508.5C 965.5,508.5 966.5,508.5 967.5,508.5C 966.279,524.151 965.279,539.818 964.5,555.5C 960.158,555.261 955.824,554.927 951.5,554.5C 951.238,553.022 951.571,551.689 952.5,550.5C 955.599,549.638 958.433,548.305 961,546.5C 962.378,539.882 962.711,533.215 962,526.5C 955.903,525.607 949.736,524.94 943.5,524.5C 942.526,530.472 942.359,536.472 943,542.5C 945.007,543.669 947.173,544.335 949.5,544.5C 949.5,546.167 949.5,547.833 949.5,549.5C 942.857,548.835 936.191,548.335 929.5,548C 928.62,546.644 928.286,545.144 928.5,543.5C 931.836,543.533 935.003,542.866 938,541.5C 939.036,535.998 939.87,530.498 940.5,525C 933.669,524.065 926.836,523.231 920,522.5C 918.118,523.093 917.118,524.427 917,526.5C 916.426,532.856 916.093,539.189 916,545.5C 918.623,548.74 921.79,551.407 925.5,553.5C 926.452,555.045 926.785,556.712 926.5,558.5C 921.585,557.117 916.585,556.117 911.5,555.5C 912.835,538.477 914.168,521.477 915.5,504.5 Z"/></g>
<g><path style="opacity:1" fill="#fefffe" d="M 72.5,528.5 C 73.8333,528.5 75.1667,528.5 76.5,528.5C 76.8361,537.527 77.5027,546.527 78.5,555.5C 77.1667,555.5 75.8333,555.5 74.5,555.5C 74.1667,552.833 73.8333,550.167 73.5,547.5C 59.1407,548.269 44.8074,549.436 30.5,551C 28.6556,553.804 27.9889,556.97 28.5,560.5C 26.8762,560.64 25.7096,559.973 25,558.5C 24.5518,550.786 23.7184,543.12 22.5,535.5C 22.7189,533.085 24.0523,532.085 26.5,532.5C 26.7038,535.518 27.0371,538.518 27.5,541.5C 42.5517,540.647 57.5517,539.313 72.5,537.5C 72.5,534.5 72.5,531.5 72.5,528.5 Z"/></g>
<g><path style="opacity:1" fill="#fefffe" d="M 665.5,889.5 C 679.612,888.759 688.112,895.426 691,909.5C 694.151,923.712 690.317,935.545 679.5,945C 677.655,946.128 675.655,946.628 673.5,946.5C 673.351,945.448 673.517,944.448 674,943.5C 684.718,934.256 687.718,922.922 683,909.5C 681.095,901.654 676.428,896.32 669,893.5C 665.653,894.18 663.653,896.18 663,899.5C 662.787,906.193 664.954,912.026 669.5,917C 672.81,919.068 675.976,918.902 679,916.5C 682.366,919.135 681.866,921.302 677.5,923C 660.058,924.885 652.892,917.051 656,899.5C 658.022,894.98 661.189,891.647 665.5,889.5 Z"/></g>
<g><path style="opacity:1" fill="#fefffe" d="M 330.5,890.5 C 343.229,887.519 351.229,892.186 354.5,904.5C 353.68,908.974 351.68,912.808 348.5,916C 337.79,921.07 327.123,926.237 316.5,931.5C 322.345,934.837 328.512,937.504 335,939.5C 336.434,939.07 337.601,938.236 338.5,937C 340.259,936.202 341.926,936.369 343.5,937.5C 342.449,940.961 340.449,943.627 337.5,945.5C 326.693,941.261 316.026,936.761 305.5,932C 313.997,927.613 322.664,923.613 331.5,920C 335.916,917.588 339.749,914.422 343,910.5C 346.767,902.144 344.434,896.477 336,893.5C 331.58,894.956 327.746,897.289 324.5,900.5C 323.263,900.444 322.263,899.944 321.5,899C 323.74,895.257 326.74,892.424 330.5,890.5 Z"/></g>
<g><path style="opacity:1" fill="#fefffe" d="M 398.5,910.5 C 413.369,909.633 420.369,916.8 419.5,932C 419.62,943.986 415.287,953.986 406.5,962C 395.939,967.344 388.106,964.844 383,954.5C 378.195,936.071 383.361,921.405 398.5,910.5 Z"/></g>
<g><path style="opacity:1" fill="#fefffe" d="M 600.5,911.5 C 613.323,910.464 621.823,916.13 626,928.5C 629.655,939.335 629.322,950.002 625,960.5C 618.633,967.441 611.466,968.275 603.5,963C 591.574,950.12 588.408,935.287 594,918.5C 595.694,915.642 597.861,913.309 600.5,911.5 Z"/></g>
<g><path style="opacity:1" fill="#8e82bc" d="M 402.5,913.5 C 405.785,913.269 408.285,914.603 410,917.5C 410.924,931.545 408.258,944.879 402,957.5C 397.801,963.034 394.135,962.7 391,956.5C 390.073,945.129 391.74,934.129 396,923.5C 397.431,919.626 399.597,916.293 402.5,913.5 Z"/></g>
<g><path style="opacity:1" fill="#8e82bc" d="M 602.5,915.5 C 606.594,914.705 609.761,916.038 612,919.5C 618.155,931.451 620.822,944.118 620,957.5C 616.219,963.991 612.219,963.991 608,957.5C 602.811,947.077 599.644,936.077 598.5,924.5C 599.087,921.12 600.421,918.12 602.5,915.5 Z"/></g>
<g><path style="opacity:1" fill="#fefffe" d="M 544.5,920.5 C 545.833,920.5 547.167,920.5 548.5,920.5C 549.388,931.819 550.054,943.153 550.5,954.5C 553.572,954.183 556.572,954.516 559.5,955.5C 560.246,956.736 560.579,958.07 560.5,959.5C 557.751,959.274 555.084,959.607 552.5,960.5C 552.087,965.767 552.087,971.101 552.5,976.5C 550.167,976.5 547.833,976.5 545.5,976.5C 545.167,971.167 544.833,965.833 544.5,960.5C 538.342,961.141 532.175,961.807 526,962.5C 524.129,962.291 522.962,961.291 522.5,959.5C 529.861,946.483 537.195,933.483 544.5,920.5 Z"/></g>
<g><path style="opacity:1" fill="#fefffe" d="M 465.5,921.5 C 471.563,920.838 477.23,922.004 482.5,925C 488.967,932.344 489.134,939.844 483,947.5C 474.693,954.084 466.859,961.25 459.5,969C 465.821,969.933 472.154,970.266 478.5,970C 479.687,968.981 480.687,967.814 481.5,966.5C 483.045,965.548 484.712,965.215 486.5,965.5C 486.406,969.136 485.739,972.636 484.5,976C 472.807,975.558 461.14,974.725 449.5,973.5C 448.479,972.998 448.312,972.332 449,971.5C 456.364,963.802 464.03,956.469 472,949.5C 477.293,943.965 478.626,937.632 476,930.5C 468.293,925.174 462.46,927.007 458.5,936C 456.866,936.494 455.199,936.66 453.5,936.5C 454.614,929.066 458.614,924.066 465.5,921.5 Z"/></g>
<g><path style="opacity:1" fill="#8e82bc" d="M 541.5,934.5 C 542.983,941.279 543.65,948.279 543.5,955.5C 538.851,956.295 534.184,956.461 529.5,956C 533.651,948.86 537.651,941.693 541.5,934.5 Z"/></g>
</svg>
